<?xml version="1.0" encoding="iso-8859-1"?>
<svg width="24" height="24" viewBox="0 0 24 24" fill="none" xmlns="http://www.w3.org/2000/svg">
<path d="M14.3604 4.28995C14.2691 4.19737 14.1608 4.12406 14.0418 4.07421C13.9227 4.02435 13.7952 3.99893 13.6665 3.9994C13.5378 3.99986 13.4104 4.0262 13.2917 4.07691C13.173 4.12762 13.0652 4.20171 12.9745 4.29495C12.8839 4.38819 12.8121 4.49875 12.7632 4.62032C12.7144 4.74189 12.6895 4.87209 12.69 5.00349C12.6904 5.13488 12.7162 5.2649 12.7659 5.38611C12.8155 5.50733 12.8881 5.61737 12.9794 5.70995L18.2292 11H2.97943C2.71967 11 2.47055 11.1053 2.28687 11.2928C2.10319 11.4804 2 11.7347 2 12C2 12.2652 2.10319 12.5195 2.28687 12.7071C2.47055 12.8946 2.71967 13 2.97943 13H18.2292L12.9794 18.29C12.797 18.4773 12.6946 18.7308 12.6946 18.995C12.6946 19.2591 12.797 19.5126 12.9794 19.7C13.0701 19.7944 13.1783 19.8696 13.2977 19.9211C13.4171 19.9726 13.5452 19.9994 13.6748 20C13.9318 19.9988 14.178 19.8947 14.3604 19.71L22 12L14.3604 4.28995Z" fill="#FFFFFF"/>
</svg>